<svg width="36" height="36" viewBox="0 0 36 36" fill="none" xmlns="http://www.w3.org/2000/svg">
<rect x="10.4509" y="7.23779" width="20.9392" height="26.595" rx="1.4" fill="url(#paint0_linear_273_123)"/>
<rect x="10.4509" y="7.23779" width="20.9392" height="26.595" rx="1.4" fill="url(#paint1_linear_273_123)"/>
<rect x="10.4509" y="7.23779" width="20.9392" height="26.595" rx="1.4" fill="url(#paint2_linear_273_123)"/>
<rect x="10.4509" y="7.23779" width="20.9392" height="26.595" rx="1.4" fill="url(#paint3_linear_273_123)"/>
<rect x="10.4509" y="7.23779" width="20.9392" height="26.595" rx="1.4" fill="url(#paint4_radial_273_123)"/>
<rect x="10.4509" y="7.23779" width="20.9392" height="26.595" rx="1.4" fill="url(#paint5_radial_273_123)"/>
<rect x="10.4509" y="7.23779" width="20.9392" height="26.595" rx="1.4" fill="url(#paint6_radial_273_123)"/>
<rect x="10.4509" y="7.23779" width="20.9392" height="26.595" rx="1.4" fill="url(#paint7_linear_273_123)"/>
<rect x="10.4509" y="7.23779" width="20.9392" height="26.595" rx="1.4" fill="url(#paint8_radial_273_123)"/>
<rect x="10.4509" y="7.23779" width="20.9392" height="26.595" rx="1.4" fill="url(#paint9_radial_273_123)"/>
<rect x="10.4509" y="7.23779" width="20.9392" height="26.595" rx="1.4" fill="url(#paint10_radial_273_123)"/>
<rect x="10.4509" y="7.23779" width="20.9392" height="26.595" rx="1.4" fill="url(#paint11_radial_273_123)"/>
<rect x="10.4509" y="7.23779" width="20.9392" height="26.595" rx="1.4" fill="url(#paint12_radial_273_123)"/>
<rect x="10.4509" y="7.23779" width="20.9392" height="26.595" rx="1.4" fill="url(#paint13_radial_273_123)"/>
<rect x="10.4509" y="7.23779" width="20.9392" height="26.595" rx="1.4" fill="url(#paint14_radial_273_123)" fill-opacity="0.49"/>
<path d="M22.5869 7.23779H12.1671C11.4306 7.23779 10.5221 7.88418 10.5221 8.68154L10.4686 32.3541V32.3541C10.4686 32.904 11.2669 33.2441 11.8166 33.2295L26.5798 32.8351C27.2612 32.8351 27.8135 31.5254 27.8135 30.7879L27.393 12.8357C27.393 12.5827 27.3002 12.3401 27.1349 12.1612L22.5869 7.23779Z" fill="url(#paint15_linear_273_123)"/>
<path d="M22.5869 7.23779H12.1671C11.4306 7.23779 10.5221 7.88418 10.5221 8.68154L10.4686 32.3541V32.3541C10.4686 32.904 11.2669 33.2441 11.8166 33.2295L26.5798 32.8351C27.2612 32.8351 27.8135 31.5254 27.8135 30.7879L27.393 12.8357C27.393 12.5827 27.3002 12.3401 27.1349 12.1612L22.5869 7.23779Z" fill="url(#paint16_radial_273_123)"/>
<path d="M23.4451 7.49001H12.1139C11.3129 7.49001 10.325 8.13637 10.325 8.93376L10.2668 32.6063V32.6063C10.2668 33.1651 11.1018 33.4972 11.6604 33.4834L27.7873 33.0873C28.5282 33.0873 29.1288 31.7776 29.1288 31.0401L28.6716 13.0879C28.6716 12.8349 28.5706 10.8761 28.3909 10.6972C28.6981 8.24798 27.3427 7.69116 23.4451 7.49001Z" fill="url(#paint17_linear_273_123)"/>
<path d="M23.4451 7.49001H12.1139C11.3129 7.49001 10.325 8.13637 10.325 8.93376L10.2668 32.6063V32.6063C10.2668 33.1651 11.1018 33.4972 11.6604 33.4834L27.7873 33.0873C28.5282 33.0873 29.1288 31.7776 29.1288 31.0401L28.6716 13.0879C28.6716 12.8349 28.5706 10.8761 28.3909 10.6972C28.6981 8.24798 27.3427 7.69116 23.4451 7.49001Z" fill="url(#paint18_linear_273_123)"/>
<path d="M23.4451 7.49001H12.1139C11.3129 7.49001 10.325 8.13637 10.325 8.93376L10.2668 32.6063V32.6063C10.2668 33.1651 11.1018 33.4972 11.6604 33.4834L27.7873 33.0873C28.5282 33.0873 29.1288 31.7776 29.1288 31.0401L28.6716 13.0879C28.6716 12.8349 28.5706 10.8761 28.3909 10.6972C28.6981 8.24798 27.3427 7.69116 23.4451 7.49001Z" fill="url(#paint19_linear_273_123)"/>
<path d="M21.5452 5.38851C21.3648 5.20814 21.1202 5.10681 20.8651 5.10681H8.10346C7.35981 5.10681 6.75696 5.70966 6.75696 6.45331V30.6078C6.75696 31.3515 7.35981 31.9543 8.10346 31.9543H26.4947C27.2384 31.9543 27.8412 31.3515 27.8412 30.6078V12.0829C27.8412 11.8279 27.7399 11.5832 27.5595 11.4029L21.5452 5.38851Z" fill="url(#paint20_linear_273_123)"/>
<path d="M21.5452 5.38851C21.3648 5.20814 21.1202 5.10681 20.8651 5.10681H8.10346C7.35981 5.10681 6.75696 5.70966 6.75696 6.45331V30.6078C6.75696 31.3515 7.35981 31.9543 8.10346 31.9543H26.4947C27.2384 31.9543 27.8412 31.3515 27.8412 30.6078V12.0829C27.8412 11.8279 27.7399 11.5832 27.5595 11.4029L21.5452 5.38851Z" fill="url(#paint21_linear_273_123)"/>
<path d="M21.5452 5.38851C21.3648 5.20814 21.1202 5.10681 20.8651 5.10681H8.10346C7.35981 5.10681 6.75696 5.70966 6.75696 6.45331V30.6078C6.75696 31.3515 7.35981 31.9543 8.10346 31.9543H26.4947C27.2384 31.9543 27.8412 31.3515 27.8412 30.6078V12.0829C27.8412 11.8279 27.7399 11.5832 27.5595 11.4029L21.5452 5.38851Z" fill="url(#paint22_linear_273_123)"/>
<path d="M21.5452 5.38851C21.3648 5.20814 21.1202 5.10681 20.8651 5.10681H8.10346C7.35981 5.10681 6.75696 5.70966 6.75696 6.45331V30.6078C6.75696 31.3515 7.35981 31.9543 8.10346 31.9543H26.4947C27.2384 31.9543 27.8412 31.3515 27.8412 30.6078V12.0829C27.8412 11.8279 27.7399 11.5832 27.5595 11.4029L21.5452 5.38851Z" fill="url(#paint23_linear_273_123)" fill-opacity="0.13"/>
<path d="M21.5452 5.38851C21.3648 5.20814 21.1202 5.10681 20.8651 5.10681H8.10346C7.35981 5.10681 6.75696 5.70966 6.75696 6.45331V30.6078C6.75696 31.3515 7.35981 31.9543 8.10346 31.9543H26.4947C27.2384 31.9543 27.8412 31.3515 27.8412 30.6078V12.0829C27.8412 11.8279 27.7399 11.5832 27.5595 11.4029L21.5452 5.38851Z" fill="url(#paint24_linear_273_123)"/>
<path d="M21.5452 5.38851C21.3648 5.20814 21.1202 5.10681 20.8651 5.10681H8.10346C7.35981 5.10681 6.75696 5.70966 6.75696 6.45331V30.6078C6.75696 31.3515 7.35981 31.9543 8.10346 31.9543H26.4947C27.2384 31.9543 27.8412 31.3515 27.8412 30.6078V12.0829C27.8412 11.8279 27.7399 11.5832 27.5595 11.4029L21.5452 5.38851Z" fill="url(#paint25_linear_273_123)"/>
<path d="M21.5452 5.38851C21.3648 5.20814 21.1202 5.10681 20.8651 5.10681H8.10346C7.35981 5.10681 6.75696 5.70966 6.75696 6.45331V30.6078C6.75696 31.3515 7.35981 31.9543 8.10346 31.9543H26.4947C27.2384 31.9543 27.8412 31.3515 27.8412 30.6078V12.0829C27.8412 11.8279 27.7399 11.5832 27.5595 11.4029L21.5452 5.38851Z" fill="url(#paint26_radial_273_123)"/>
<path d="M21.5452 5.38851C21.3648 5.20814 21.1202 5.10681 20.8651 5.10681H8.10346C7.35981 5.10681 6.75696 5.70966 6.75696 6.45331V30.6078C6.75696 31.3515 7.35981 31.9543 8.10346 31.9543H26.4947C27.2384 31.9543 27.8412 31.3515 27.8412 30.6078V12.0829C27.8412 11.8279 27.7399 11.5832 27.5595 11.4029L21.5452 5.38851Z" fill="url(#paint27_radial_273_123)"/>
<path d="M21.5452 5.38851C21.3648 5.20814 21.1202 5.10681 20.8651 5.10681H8.10346C7.35981 5.10681 6.75696 5.70966 6.75696 6.45331V30.6078C6.75696 31.3515 7.35981 31.9543 8.10346 31.9543H26.4947C27.2384 31.9543 27.8412 31.3515 27.8412 30.6078V12.0829C27.8412 11.8279 27.7399 11.5832 27.5595 11.4029L21.5452 5.38851Z" fill="url(#paint28_radial_273_123)"/>
<path d="M21.5452 5.38851C21.3648 5.20814 21.1202 5.10681 20.8651 5.10681H8.10346C7.35981 5.10681 6.75696 5.70966 6.75696 6.45331V30.6078C6.75696 31.3515 7.35981 31.9543 8.10346 31.9543H26.4947C27.2384 31.9543 27.8412 31.3515 27.8412 30.6078V12.0829C27.8412 11.8279 27.7399 11.5832 27.5595 11.4029L21.5452 5.38851Z" fill="url(#paint29_linear_273_123)"/>
<path d="M21.5452 5.38851C21.3648 5.20814 21.1202 5.10681 20.8651 5.10681H8.10346C7.35981 5.10681 6.75696 5.70966 6.75696 6.45331V30.6078C6.75696 31.3515 7.35981 31.9543 8.10346 31.9543H26.4947C27.2384 31.9543 27.8412 31.3515 27.8412 30.6078V12.0829C27.8412 11.8279 27.7399 11.5832 27.5595 11.4029L21.5452 5.38851Z" fill="url(#paint30_linear_273_123)"/>
<path d="M21.5452 5.38851C21.3648 5.20814 21.1202 5.10681 20.8651 5.10681H8.10346C7.35981 5.10681 6.75696 5.70966 6.75696 6.45331V30.6078C6.75696 31.3515 7.35981 31.9543 8.10346 31.9543H26.4947C27.2384 31.9543 27.8412 31.3515 27.8412 30.6078V12.0829C27.8412 11.8279 27.7399 11.5832 27.5595 11.4029L21.5452 5.38851Z" fill="url(#paint31_linear_273_123)" fill-opacity="0.55"/>
<path d="M21.5452 5.38851C21.3648 5.20814 21.1202 5.10681 20.8651 5.10681H8.10346C7.35981 5.10681 6.75696 5.70966 6.75696 6.45331V30.6078C6.75696 31.3515 7.35981 31.9543 8.10346 31.9543H26.4947C27.2384 31.9543 27.8412 31.3515 27.8412 30.6078V12.0829C27.8412 11.8279 27.7399 11.5832 27.5595 11.4029L21.5452 5.38851Z" fill="url(#paint32_linear_273_123)" fill-opacity="0.55"/>
<path d="M21.5452 5.38851C21.3648 5.20814 21.1202 5.10681 20.8651 5.10681H8.10346C7.35981 5.10681 6.75696 5.70966 6.75696 6.45331V30.6078C6.75696 31.3515 7.35981 31.9543 8.10346 31.9543H26.4947C27.2384 31.9543 27.8412 31.3515 27.8412 30.6078V12.0829C27.8412 11.8279 27.7399 11.5832 27.5595 11.4029L21.5452 5.38851Z" fill="url(#paint33_linear_273_123)"/>
<path d="M20.1414 5.50485C20.1414 5.31114 20.197 5.14742 20.0916 5.12671C20.1918 5.13309 21.0297 5.05402 21.1199 5.1592C21.2384 5.20574 21.1672 5.39491 21.26 5.48552C21.2627 5.48816 21.2654 5.49082 21.2681 5.4935L27.2824 11.5078C27.3007 11.5262 27.3183 11.5452 27.3349 11.5648C27.417 11.6613 27.4593 11.6402 27.4979 11.7595C27.5286 11.8543 27.749 11.6579 27.749 11.7595L27.8229 11.9072V12.1134C27.8229 12.1134 27.8691 12.3546 27.749 12.3546L21.5238 13.0484C20.5353 13.0484 19.6044 11.9121 19.6044 11.2747L20.1414 5.50485Z" fill="url(#paint34_linear_273_123)"/>
<path d="M20.1414 5.50485C20.1414 5.31114 20.197 5.14742 20.0916 5.12671C20.1918 5.13309 21.0297 5.05402 21.1199 5.1592C21.2384 5.20574 21.1672 5.39491 21.26 5.48552C21.2627 5.48816 21.2654 5.49082 21.2681 5.4935L27.2824 11.5078C27.3007 11.5262 27.3183 11.5452 27.3349 11.5648C27.417 11.6613 27.4593 11.6402 27.4979 11.7595C27.5286 11.8543 27.749 11.6579 27.749 11.7595L27.8229 11.9072V12.1134C27.8229 12.1134 27.8691 12.3546 27.749 12.3546L21.5238 13.0484C20.5353 13.0484 19.6044 11.9121 19.6044 11.2747L20.1414 5.50485Z" fill="url(#paint35_linear_273_123)"/>
<path d="M20.1414 5.50485C20.1414 5.31114 20.197 5.14742 20.0916 5.12671C20.1918 5.13309 21.0297 5.05402 21.1199 5.1592C21.2384 5.20574 21.1672 5.39491 21.26 5.48552C21.2627 5.48816 21.2654 5.49082 21.2681 5.4935L27.2824 11.5078C27.3007 11.5262 27.3183 11.5452 27.3349 11.5648C27.417 11.6613 27.4593 11.6402 27.4979 11.7595C27.5286 11.8543 27.749 11.6579 27.749 11.7595L27.8229 11.9072V12.1134C27.8229 12.1134 27.8691 12.3546 27.749 12.3546L21.5238 13.0484C20.5353 13.0484 19.6044 11.9121 19.6044 11.2747L20.1414 5.50485Z" fill="url(#paint36_linear_273_123)"/>
<path d="M21.1837 5.39968C21.1837 5.20597 21.0317 5.12929 20.9263 5.10858C21.0264 5.11497 21.1243 5.13695 21.2165 5.17316C21.335 5.21969 21.4442 5.28974 21.537 5.38035C21.5397 5.38299 21.5424 5.38565 21.5451 5.38833L27.5594 11.4027C27.5777 11.421 27.5952 11.44 27.6119 11.4596C27.694 11.5561 27.7558 11.6674 27.7944 11.7866C27.8251 11.8814 27.8411 11.9813 27.8411 12.0828V12.1435C27.8411 11.9202 27.6795 11.7866 27.5594 11.7866H22.3378C21.7004 11.7866 21.1837 11.2698 21.1837 10.6324V5.39968Z" fill="url(#paint37_linear_273_123)"/>
<path d="M21.1837 5.39968C21.1837 5.20597 21.0317 5.12929 20.9263 5.10858C21.0264 5.11497 21.1243 5.13695 21.2165 5.17316C21.335 5.21969 21.4442 5.28974 21.537 5.38035C21.5397 5.38299 21.5424 5.38565 21.5451 5.38833L27.5594 11.4027C27.5777 11.421 27.5952 11.44 27.6119 11.4596C27.694 11.5561 27.7558 11.6674 27.7944 11.7866C27.8251 11.8814 27.8411 11.9813 27.8411 12.0828V12.1435C27.8411 11.9202 27.6795 11.7866 27.5594 11.7866H22.3378C21.7004 11.7866 21.1837 11.2698 21.1837 10.6324V5.39968Z" fill="url(#paint38_linear_273_123)"/>
<path d="M21.1837 5.39968C21.1837 5.20597 21.0317 5.12929 20.9263 5.10858C21.0264 5.11497 21.1243 5.13695 21.2165 5.17316C21.335 5.21969 21.4442 5.28974 21.537 5.38035C21.5397 5.38299 21.5424 5.38565 21.5451 5.38833L27.5594 11.4027C27.5777 11.421 27.5952 11.44 27.6119 11.4596C27.694 11.5561 27.7558 11.6674 27.7944 11.7866C27.8251 11.8814 27.8411 11.9813 27.8411 12.0828V12.1435C27.8411 11.9202 27.6795 11.7866 27.5594 11.7866H22.3378C21.7004 11.7866 21.1837 11.2698 21.1837 10.6324V5.39968Z" fill="url(#paint39_linear_273_123)"/>
<path d="M21.1837 5.39968C21.1837 5.20597 21.0317 5.12929 20.9263 5.10858C21.0264 5.11497 21.1243 5.13695 21.2165 5.17316C21.335 5.21969 21.4442 5.28974 21.537 5.38035C21.5397 5.38299 21.5424 5.38565 21.5451 5.38833L27.5594 11.4027C27.5777 11.421 27.5952 11.44 27.6119 11.4596C27.694 11.5561 27.7558 11.6674 27.7944 11.7866C27.8251 11.8814 27.8411 11.9813 27.8411 12.0828V12.1435C27.8411 11.9202 27.6795 11.7866 27.5594 11.7866H22.3378C21.7004 11.7866 21.1837 11.2698 21.1837 10.6324V5.39968Z" fill="url(#paint40_linear_273_123)"/>
<path d="M21.1837 5.39968C21.1837 5.20597 21.0317 5.12929 20.9263 5.10858C21.0264 5.11497 21.1243 5.13695 21.2165 5.17316C21.335 5.21969 21.4442 5.28974 21.537 5.38035C21.5397 5.38299 21.5424 5.38565 21.5451 5.38833L27.5594 11.4027C27.5777 11.421 27.5952 11.44 27.6119 11.4596C27.694 11.5561 27.7558 11.6674 27.7944 11.7866C27.8251 11.8814 27.8411 11.9813 27.8411 12.0828V12.1435C27.8411 11.9202 27.6795 11.7866 27.5594 11.7866H22.3378C21.7004 11.7866 21.1837 11.2698 21.1837 10.6324V5.39968Z" fill="url(#paint41_radial_273_123)"/>
<path d="M21.1837 5.39968C21.1837 5.20597 21.0317 5.12929 20.9263 5.10858C21.0264 5.11497 21.1243 5.13695 21.2165 5.17316C21.335 5.21969 21.4442 5.28974 21.537 5.38035C21.5397 5.38299 21.5424 5.38565 21.5451 5.38833L27.5594 11.4027C27.5777 11.421 27.5952 11.44 27.6119 11.4596C27.694 11.5561 27.7558 11.6674 27.7944 11.7866C27.8251 11.8814 27.8411 11.9813 27.8411 12.0828V12.1435C27.8411 11.9202 27.6795 11.7866 27.5594 11.7866H22.3378C21.7004 11.7866 21.1837 11.2698 21.1837 10.6324V5.39968Z" fill="url(#paint42_radial_273_123)"/>
<path d="M21.1837 5.39968C21.1837 5.20597 21.0317 5.12929 20.9263 5.10858C21.0264 5.11497 21.1243 5.13695 21.2165 5.17316C21.335 5.21969 21.4442 5.28974 21.537 5.38035C21.5397 5.38299 21.5424 5.38565 21.5451 5.38833L27.5594 11.4027C27.5777 11.421 27.5952 11.44 27.6119 11.4596C27.694 11.5561 27.7558 11.6674 27.7944 11.7866C27.8251 11.8814 27.8411 11.9813 27.8411 12.0828V12.1435C27.8411 11.9202 27.6795 11.7866 27.5594 11.7866H22.3378C21.7004 11.7866 21.1837 11.2698 21.1837 10.6324V5.39968Z" fill="url(#paint43_radial_273_123)"/>
<path d="M21.1837 5.39968C21.1837 5.20597 21.0317 5.12929 20.9263 5.10858C21.0264 5.11497 21.1243 5.13695 21.2165 5.17316C21.335 5.21969 21.4442 5.28974 21.537 5.38035C21.5397 5.38299 21.5424 5.38565 21.5451 5.38833L27.5594 11.4027C27.5777 11.421 27.5952 11.44 27.6119 11.4596C27.694 11.5561 27.7558 11.6674 27.7944 11.7866C27.8251 11.8814 27.8411 11.9813 27.8411 12.0828V12.1435C27.8411 11.9202 27.6795 11.7866 27.5594 11.7866H22.3378C21.7004 11.7866 21.1837 11.2698 21.1837 10.6324V5.39968Z" fill="url(#paint44_radial_273_123)"/>
<path d="M21.1837 5.39968C21.1837 5.20597 21.0317 5.12929 20.9263 5.10858C21.0264 5.11497 21.1243 5.13695 21.2165 5.17316C21.335 5.21969 21.4442 5.28974 21.537 5.38035C21.5397 5.38299 21.5424 5.38565 21.5451 5.38833L27.5594 11.4027C27.5777 11.421 27.5952 11.44 27.6119 11.4596C27.694 11.5561 27.7558 11.6674 27.7944 11.7866C27.8251 11.8814 27.8411 11.9813 27.8411 12.0828V12.1435C27.8411 11.9202 27.6795 11.7866 27.5594 11.7866H22.3378C21.7004 11.7866 21.1837 11.2698 21.1837 10.6324V5.39968Z" fill="url(#paint45_radial_273_123)"/>
<path fill-rule="evenodd" clip-rule="evenodd" d="M11.0811 14.6795C10.8176 14.6795 10.604 14.8931 10.604 15.1566C10.604 15.4201 10.8176 15.6338 11.0811 15.6338H23.5093C23.7728 15.6338 23.9864 15.4201 23.9864 15.1566C23.9864 14.8931 23.7728 14.6795 23.5093 14.6795H11.0811ZM11.0811 17.5648C10.8176 17.5648 10.604 17.7784 10.604 18.042C10.604 18.3055 10.8176 18.5191 11.0811 18.5191H23.5093C23.7728 18.5191 23.9864 18.3055 23.9864 18.042C23.9864 17.7784 23.7728 17.5648 23.5093 17.5648H11.0811ZM10.604 20.9274C10.604 20.6639 10.8176 20.4502 11.0811 20.4502H23.5093C23.7728 20.4502 23.9864 20.6639 23.9864 20.9274C23.9864 21.1909 23.7728 21.4045 23.5093 21.4045H11.0811C10.8176 21.4045 10.604 21.1909 10.604 20.9274ZM11.0811 23.3356C10.8176 23.3356 10.604 23.5492 10.604 23.8127C10.604 24.0762 10.8176 24.2899 11.0811 24.2899H18.768C19.0315 24.2899 19.2451 24.0762 19.2451 23.8127C19.2451 23.5492 19.0315 23.3356 18.768 23.3356H11.0811Z" fill="url(#paint46_linear_273_123)"/>
<path d="M27.8135 16.1251L26.1655 16.1263C26.0037 16.1263 25.8496 16.1982 25.7415 16.324L24.6666 17.5761C24.5693 17.6894 24.5693 18.5345 24.6666 18.6478L25.7415 19.8998C25.8496 20.0257 26.0037 20.0976 26.1655 20.0976L27.8135 20.0964V16.1251Z" fill="url(#paint47_radial_273_123)" fill-opacity="0.75"/>
<path d="M27.8135 16.1251L26.1655 16.1263C26.0037 16.1263 25.8496 16.1982 25.7415 16.324L24.6666 17.5761C24.5693 17.6894 24.5693 18.5345 24.6666 18.6478L25.7415 19.8998C25.8496 20.0257 26.0037 20.0976 26.1655 20.0976L27.8135 20.0964V16.1251Z" fill="url(#paint48_radial_273_123)" fill-opacity="0.75"/>
<path d="M27.8135 16.1251L26.1655 16.1263C26.0037 16.1263 25.8496 16.1982 25.7415 16.324L24.6666 17.5761C24.5693 17.6894 24.5693 18.5345 24.6666 18.6478L25.7415 19.8998C25.8496 20.0257 26.0037 20.0976 26.1655 20.0976L27.8135 20.0964V16.1251Z" fill="url(#paint49_radial_273_123)" fill-opacity="0.75"/>
<path d="M27.8135 16.1251L26.1655 16.1263C26.0037 16.1263 25.8496 16.1982 25.7415 16.324L24.6666 17.5761C24.5693 17.6894 24.5693 18.5345 24.6666 18.6478L25.7415 19.8998C25.8496 20.0257 26.0037 20.0976 26.1655 20.0976L27.8135 20.0964V16.1251Z" fill="url(#paint50_radial_273_123)" fill-opacity="0.75"/>
<path d="M26.3379 16.7384C26.4357 16.6296 26.5752 16.5674 26.7215 16.5674H30.1251C30.2675 16.5674 30.3829 16.6828 30.3829 16.8252V19.1616C30.3829 19.304 30.2675 19.4194 30.1251 19.4194H26.7215C26.5752 19.4194 26.4357 19.3573 26.3379 19.2484L25.3653 18.1657C25.2773 18.0677 25.2773 17.9191 25.3653 17.8211L26.3379 16.7384Z" fill="url(#paint51_linear_273_123)"/>
<path d="M26.3379 16.7384C26.4357 16.6296 26.5752 16.5674 26.7215 16.5674H30.1251C30.2675 16.5674 30.3829 16.6828 30.3829 16.8252V19.1616C30.3829 19.304 30.2675 19.4194 30.1251 19.4194H26.7215C26.5752 19.4194 26.4357 19.3573 26.3379 19.2484L25.3653 18.1657C25.2773 18.0677 25.2773 17.9191 25.3653 17.8211L26.3379 16.7384Z" fill="url(#paint52_linear_273_123)"/>
<path d="M26.3379 16.7384C26.4357 16.6296 26.5752 16.5674 26.7215 16.5674H30.1251C30.2675 16.5674 30.3829 16.6828 30.3829 16.8252V19.1616C30.3829 19.304 30.2675 19.4194 30.1251 19.4194H26.7215C26.5752 19.4194 26.4357 19.3573 26.3379 19.2484L25.3653 18.1657C25.2773 18.0677 25.2773 17.9191 25.3653 17.8211L26.3379 16.7384Z" fill="url(#paint53_linear_273_123)" fill-opacity="0.74"/>
<path d="M26.3379 16.7384C26.4357 16.6296 26.5752 16.5674 26.7215 16.5674H30.1251C30.2675 16.5674 30.3829 16.6828 30.3829 16.8252V19.1616C30.3829 19.304 30.2675 19.4194 30.1251 19.4194H26.7215C26.5752 19.4194 26.4357 19.3573 26.3379 19.2484L25.3653 18.1657C25.2773 18.0677 25.2773 17.9191 25.3653 17.8211L26.3379 16.7384Z" fill="url(#paint54_linear_273_123)" fill-opacity="0.74"/>
<path d="M26.3379 16.7384C26.4357 16.6296 26.5752 16.5674 26.7215 16.5674H30.1251C30.2675 16.5674 30.3829 16.6828 30.3829 16.8252V19.1616C30.3829 19.304 30.2675 19.4194 30.1251 19.4194H26.7215C26.5752 19.4194 26.4357 19.3573 26.3379 19.2484L25.3653 18.1657C25.2773 18.0677 25.2773 17.9191 25.3653 17.8211L26.3379 16.7384Z" fill="url(#paint55_linear_273_123)" fill-opacity="0.74"/>
<path d="M26.3379 16.7384C26.4357 16.6296 26.5752 16.5674 26.7215 16.5674H30.1251C30.2675 16.5674 30.3829 16.6828 30.3829 16.8252V19.1616C30.3829 19.304 30.2675 19.4194 30.1251 19.4194H26.7215C26.5752 19.4194 26.4357 19.3573 26.3379 19.2484L25.3653 18.1657C25.2773 18.0677 25.2773 17.9191 25.3653 17.8211L26.3379 16.7384Z" fill="url(#paint56_linear_273_123)" fill-opacity="0.74"/>
<path d="M31.3913 23.1776L29.4922 23.1788C29.3058 23.1788 29.1282 23.2507 29.0036 23.3766L27.7649 24.6286C27.6528 24.7419 27.6528 25.587 27.7649 25.7003L29.0036 26.9523C29.1282 27.0782 29.3058 27.1501 29.4922 27.1501L31.3913 27.1489V23.1776Z" fill="url(#paint57_radial_273_123)"/>
<path d="M31.3913 23.1776L29.4922 23.1788C29.3058 23.1788 29.1282 23.2507 29.0036 23.3766L27.7649 24.6286C27.6528 24.7419 27.6528 25.587 27.7649 25.7003L29.0036 26.9523C29.1282 27.0782 29.3058 27.1501 29.4922 27.1501L31.3913 27.1489V23.1776Z" fill="url(#paint58_radial_273_123)"/>
<path d="M31.3913 23.1776L29.4922 23.1788C29.3058 23.1788 29.1282 23.2507 29.0036 23.3766L27.7649 24.6286C27.6528 24.7419 27.6528 25.587 27.7649 25.7003L29.0036 26.9523C29.1282 27.0782 29.3058 27.1501 29.4922 27.1501L31.3913 27.1489V23.1776Z" fill="url(#paint59_radial_273_123)"/>
<path d="M31.3913 23.1776L29.4922 23.1788C29.3058 23.1788 29.1282 23.2507 29.0036 23.3766L27.7649 24.6286C27.6528 24.7419 27.6528 25.587 27.7649 25.7003L29.0036 26.9523C29.1282 27.0782 29.3058 27.1501 29.4922 27.1501L31.3913 27.1489V23.1776Z" fill="url(#paint60_radial_273_123)"/>
<path d="M29.4156 23.9088C29.5134 23.8 29.6528 23.7378 29.7991 23.7378H33.2028C33.3451 23.7378 33.4606 23.8532 33.4606 23.9956V26.332C33.4606 26.4744 33.3451 26.5898 33.2028 26.5898H29.7991C29.6528 26.5898 29.5134 26.5277 29.4156 26.4188L28.443 25.3361C28.3549 25.2381 28.3549 25.0895 28.443 24.9915L29.4156 23.9088Z" fill="url(#paint61_linear_273_123)"/>
<path d="M29.4156 23.9088C29.5134 23.8 29.6528 23.7378 29.7991 23.7378H33.2028C33.3451 23.7378 33.4606 23.8532 33.4606 23.9956V26.332C33.4606 26.4744 33.3451 26.5898 33.2028 26.5898H29.7991C29.6528 26.5898 29.5134 26.5277 29.4156 26.4188L28.443 25.3361C28.3549 25.2381 28.3549 25.0895 28.443 24.9915L29.4156 23.9088Z" fill="url(#paint62_linear_273_123)"/>
<path d="M29.4156 23.9088C29.5134 23.8 29.6528 23.7378 29.7991 23.7378H33.2028C33.3451 23.7378 33.4606 23.8532 33.4606 23.9956V26.332C33.4606 26.4744 33.3451 26.5898 33.2028 26.5898H29.7991C29.6528 26.5898 29.5134 26.5277 29.4156 26.4188L28.443 25.3361C28.3549 25.2381 28.3549 25.0895 28.443 24.9915L29.4156 23.9088Z" fill="url(#paint63_linear_273_123)" fill-opacity="0.46"/>
<path d="M29.4156 23.9088C29.5134 23.8 29.6528 23.7378 29.7991 23.7378H33.2028C33.3451 23.7378 33.4606 23.8532 33.4606 23.9956V26.332C33.4606 26.4744 33.3451 26.5898 33.2028 26.5898H29.7991C29.6528 26.5898 29.5134 26.5277 29.4156 26.4188L28.443 25.3361C28.3549 25.2381 28.3549 25.0895 28.443 24.9915L29.4156 23.9088Z" fill="url(#paint64_linear_273_123)" fill-opacity="0.46"/>
<path d="M29.4156 23.9088C29.5134 23.8 29.6528 23.7378 29.7991 23.7378H33.2028C33.3451 23.7378 33.4606 23.8532 33.4606 23.9956V26.332C33.4606 26.4744 33.3451 26.5898 33.2028 26.5898H29.7991C29.6528 26.5898 29.5134 26.5277 29.4156 26.4188L28.443 25.3361C28.3549 25.2381 28.3549 25.0895 28.443 24.9915L29.4156 23.9088Z" fill="url(#paint65_linear_273_123)" fill-opacity="0.46"/>
<path d="M29.4156 23.9088C29.5134 23.8 29.6528 23.7378 29.7991 23.7378H33.2028C33.3451 23.7378 33.4606 23.8532 33.4606 23.9956V26.332C33.4606 26.4744 33.3451 26.5898 33.2028 26.5898H29.7991C29.6528 26.5898 29.5134 26.5277 29.4156 26.4188L28.443 25.3361C28.3549 25.2381 28.3549 25.0895 28.443 24.9915L29.4156 23.9088Z" fill="url(#paint66_linear_273_123)" fill-opacity="0.46"/>
<path d="M29.4156 23.9088C29.5134 23.8 29.6528 23.7378 29.7991 23.7378H33.2028C33.3451 23.7378 33.4606 23.8532 33.4606 23.9956V26.332C33.4606 26.4744 33.3451 26.5898 33.2028 26.5898H29.7991C29.6528 26.5898 29.5134 26.5277 29.4156 26.4188L28.443 25.3361C28.3549 25.2381 28.3549 25.0895 28.443 24.9915L29.4156 23.9088Z" fill="url(#paint67_radial_273_123)" fill-opacity="0.26"/>
<path d="M29.4156 23.9088C29.5134 23.8 29.6528 23.7378 29.7991 23.7378H33.2028C33.3451 23.7378 33.4606 23.8532 33.4606 23.9956V26.332C33.4606 26.4744 33.3451 26.5898 33.2028 26.5898H29.7991C29.6528 26.5898 29.5134 26.5277 29.4156 26.4188L28.443 25.3361C28.3549 25.2381 28.3549 25.0895 28.443 24.9915L29.4156 23.9088Z" fill="url(#paint68_radial_273_123)" fill-opacity="0.73"/>
<path d="M6.02834 2.30242L0.885214 11.2115C0.678027 11.573 0.938027 12.028 1.35646 12.028H11.6427C12.0612 12.028 12.3212 11.5771 12.114 11.2115L6.97084 2.30242C6.75959 1.94086 6.23959 1.94086 6.02834 2.30242Z" fill="#FFB02E"/>
<path d="M5.93079 8.73336C5.93079 9.04618 6.18266 9.30211 6.49954 9.30211C6.81641 9.30211 7.06829 9.04618 7.06829 8.7293V5.00805C7.06829 4.69524 6.81641 4.4393 6.49954 4.4393C6.18672 4.4393 5.93079 4.69118 5.93079 5.00805V8.73336Z" fill="black"/>
<path d="M7.06829 10.3502C7.06829 10.6644 6.81365 10.919 6.49954 10.919C6.18542 10.919 5.93079 10.6644 5.93079 10.3502C5.93079 10.0361 6.18542 9.7815 6.49954 9.7815C6.81365 9.7815 7.06829 10.0361 7.06829 10.3502Z" fill="black"/>
<defs>
<linearGradient id="paint0_linear_273_123" x1="24.4775" y1="28.0078" x2="32.2119" y2="31.6816" gradientUnits="userSpaceOnUse">
<stop stop-color="#AFAAB6"/>
<stop offset="1" stop-color="#B7B0C0"/>
</linearGradient>
<linearGradient id="paint1_linear_273_123" x1="12.0381" y1="34.2598" x2="24.9287" y2="26.0742" gradientUnits="userSpaceOnUse">
<stop stop-color="#A79FB2"/>
<stop offset="1" stop-color="#A79FB2" stop-opacity="0"/>
</linearGradient>
<linearGradient id="paint2_linear_273_123" x1="31.4815" y1="19.8505" x2="31.1327" y2="19.8505" gradientUnits="userSpaceOnUse">
<stop stop-color="#CECCD3"/>
<stop offset="1" stop-color="#CFCCD3" stop-opacity="0"/>
</linearGradient>
<linearGradient id="paint3_linear_273_123" x1="31.0411" y1="7.23779" x2="31.0411" y2="7.49882" gradientUnits="userSpaceOnUse">
<stop stop-color="#CFCCD3"/>
<stop offset="1" stop-color="#CFCCD3" stop-opacity="0"/>
</linearGradient>
<radialGradient id="paint4_radial_273_123" cx="0" cy="0" r="1" gradientUnits="userSpaceOnUse" gradientTransform="translate(30.3935 7.23779) rotate(27.5945) scale(1.27565 0.239209)">
<stop stop-color="#CFCCD3"/>
<stop offset="1" stop-color="#CFCCD3" stop-opacity="0"/>
</radialGradient>
<radialGradient id="paint5_radial_273_123" cx="0" cy="0" r="1" gradientUnits="userSpaceOnUse" gradientTransform="translate(30.7444 7.33489) rotate(45) scale(1.19452 0.453055)">
<stop stop-color="#CFCCD3"/>
<stop offset="1" stop-color="#CFCCD3" stop-opacity="0"/>
</radialGradient>
<radialGradient id="paint6_radial_273_123" cx="0" cy="0" r="1" gradientUnits="userSpaceOnUse" gradientTransform="translate(31.3031 7.88066) rotate(80.2933) scale(1.00194 0.380013)">
<stop stop-color="#CFCCD3"/>
<stop offset="1" stop-color="#CFCCD3" stop-opacity="0"/>
</radialGradient>
<linearGradient id="paint7_linear_273_123" x1="20.9205" y1="33.9213" x2="20.9205" y2="33.6145" gradientUnits="userSpaceOnUse">
<stop stop-color="#9887AC"/>
<stop offset="1" stop-color="#9887AC" stop-opacity="0"/>
</linearGradient>
<radialGradient id="paint8_radial_273_123" cx="0" cy="0" r="1" gradientUnits="userSpaceOnUse" gradientTransform="translate(10.6356 34.116) rotate(-3.80615) scale(1.71584 0.856999)">
<stop stop-color="#9887AC"/>
<stop offset="1" stop-color="#9887AC" stop-opacity="0"/>
</radialGradient>
<radialGradient id="paint9_radial_273_123" cx="0" cy="0" r="1" gradientUnits="userSpaceOnUse" gradientTransform="translate(10.4509 31.865) rotate(86.4477) scale(1.63479 0.273908)">
<stop stop-color="#9887AC"/>
<stop offset="1" stop-color="#9887AC" stop-opacity="0"/>
</radialGradient>
<radialGradient id="paint10_radial_273_123" cx="0" cy="0" r="1" gradientUnits="userSpaceOnUse" gradientTransform="translate(10.4509 32.7821) rotate(54.7206) scale(1.37138 0.229775)">
<stop stop-color="#9887AC"/>
<stop offset="1" stop-color="#9887AC" stop-opacity="0"/>
</radialGradient>
<radialGradient id="paint11_radial_273_123" cx="0" cy="0" r="1" gradientUnits="userSpaceOnUse" gradientTransform="translate(10.8142 33.3656) rotate(35.3112) scale(1.05083 0.176067)">
<stop stop-color="#9887AC"/>
<stop offset="1" stop-color="#9887AC" stop-opacity="0"/>
</radialGradient>
<radialGradient id="paint12_radial_273_123" cx="0" cy="0" r="1" gradientUnits="userSpaceOnUse" gradientTransform="translate(29.7736 34.3906) rotate(-38.0944) scale(1.59538 0.435677)">
<stop stop-color="#9887AC"/>
<stop offset="1" stop-color="#9887AC" stop-opacity="0"/>
</radialGradient>
<radialGradient id="paint13_radial_273_123" cx="0" cy="0" r="1" gradientUnits="userSpaceOnUse" gradientTransform="translate(30.8597 33.7453) rotate(-53.541) scale(1.27233 0.347455)">
<stop stop-color="#9887AC"/>
<stop offset="1" stop-color="#9887AC" stop-opacity="0"/>
</radialGradient>
<radialGradient id="paint14_radial_273_123" cx="0" cy="0" r="1" gradientUnits="userSpaceOnUse" gradientTransform="translate(31.2833 33.2955) rotate(-75.8849) scale(1.14926 0.264046)">
<stop stop-color="#9887AC"/>
<stop offset="1" stop-color="#9887AC" stop-opacity="0"/>
</radialGradient>
<linearGradient id="paint15_linear_273_123" x1="19.1133" y1="31.5725" x2="19.1133" y2="32.9867" gradientUnits="userSpaceOnUse">
<stop stop-color="#91879F"/>
<stop offset="1" stop-color="#91879F" stop-opacity="0"/>
</linearGradient>
<radialGradient id="paint16_radial_273_123" cx="0" cy="0" r="1" gradientUnits="userSpaceOnUse" gradientTransform="translate(14.3695 31.8529) rotate(0.137396) scale(13.7661 2.08718)">
<stop offset="0.0885417" stop-color="#B4ADBD" stop-opacity="0"/>
<stop offset="0.5625" stop-color="#B5ADBD" stop-opacity="0"/>
<stop offset="0.949543" stop-color="#B5AEBD"/>
</radialGradient>
<linearGradient id="paint17_linear_273_123" x1="26.9443" y1="22.0659" x2="29.5314" y2="22.0659" gradientUnits="userSpaceOnUse">
<stop offset="0.229167" stop-color="#91879F"/>
<stop offset="0.526042" stop-color="#91879F" stop-opacity="0"/>
</linearGradient>
<linearGradient id="paint18_linear_273_123" x1="25.5848" y1="39.0869" x2="21.1126" y2="15.7494" gradientUnits="userSpaceOnUse">
<stop stop-color="#B6AFBF"/>
<stop offset="1" stop-color="#B6AFBE" stop-opacity="0"/>
</linearGradient>
<linearGradient id="paint19_linear_273_123" x1="28.7303" y1="8.10479" x2="15.3344" y2="17.7417" gradientUnits="userSpaceOnUse">
<stop stop-color="#B0AAB7"/>
<stop offset="1" stop-color="#B6AFBE" stop-opacity="0"/>
</linearGradient>
<linearGradient id="paint20_linear_273_123" x1="17.2991" y1="5.10681" x2="17.2991" y2="31.9543" gradientUnits="userSpaceOnUse">
<stop stop-color="#EBE4F3"/>
<stop offset="1" stop-color="#E4DAF0"/>
</linearGradient>
<linearGradient id="paint21_linear_273_123" x1="17.2991" y1="5.2288" x2="17.2991" y2="5.45344" gradientUnits="userSpaceOnUse">
<stop stop-color="#F3F0F6"/>
<stop offset="1" stop-color="#F3F0F6" stop-opacity="0"/>
</linearGradient>
<linearGradient id="paint22_linear_273_123" x1="27.8412" y1="17.865" x2="27.5121" y2="17.865" gradientUnits="userSpaceOnUse">
<stop stop-color="#F3F0F6"/>
<stop offset="1" stop-color="#F3F0F6" stop-opacity="0"/>
</linearGradient>
<linearGradient id="paint23_linear_273_123" x1="28.0613" y1="17.865" x2="27.6742" y2="17.865" gradientUnits="userSpaceOnUse">
<stop stop-color="#B9A6CC"/>
<stop offset="1" stop-color="#B9A6CC" stop-opacity="0"/>
</linearGradient>
<linearGradient id="paint24_linear_273_123" x1="5.96923" y1="17.865" x2="6.93152" y2="17.8668" gradientUnits="userSpaceOnUse">
<stop stop-color="#B5B0BB"/>
<stop offset="1" stop-color="#B5B0BB" stop-opacity="0"/>
</linearGradient>
<linearGradient id="paint25_linear_273_123" x1="18.7602" y1="32.4658" x2="18.7602" y2="31.7745" gradientUnits="userSpaceOnUse">
<stop stop-color="#B5B0BB"/>
<stop offset="1" stop-color="#B5B0BB" stop-opacity="0"/>
</linearGradient>
<radialGradient id="paint26_radial_273_123" cx="0" cy="0" r="1" gradientUnits="userSpaceOnUse" gradientTransform="translate(7.31613 32.1318) rotate(-72.992) scale(0.499313 1.62072)">
<stop stop-color="#B5B0BB"/>
<stop offset="1" stop-color="#B5B0BB" stop-opacity="0"/>
</radialGradient>
<radialGradient id="paint27_radial_273_123" cx="0" cy="0" r="1" gradientUnits="userSpaceOnUse" gradientTransform="translate(6.88921 31.761) rotate(-60.2552) scale(0.452885 1.47002)">
<stop stop-color="#B5B0BB"/>
<stop offset="1" stop-color="#B5B0BB" stop-opacity="0"/>
</radialGradient>
<radialGradient id="paint28_radial_273_123" cx="0" cy="0" r="1" gradientUnits="userSpaceOnUse" gradientTransform="translate(6.72069 31.2723) rotate(-38.6597) scale(0.323717 1.05075)">
<stop stop-color="#B5B0BB"/>
<stop offset="1" stop-color="#B5B0BB" stop-opacity="0"/>
</radialGradient>
<linearGradient id="paint29_linear_273_123" x1="6.32322" y1="30.6248" x2="6.99523" y2="30.6248" gradientUnits="userSpaceOnUse">
<stop stop-color="#B5B0BB"/>
<stop offset="1" stop-color="#B5B0BB" stop-opacity="0"/>
</linearGradient>
<linearGradient id="paint30_linear_273_123" x1="6.01913" y1="5.3654" x2="7.27447" y2="5.91075" gradientUnits="userSpaceOnUse">
<stop stop-color="#B5B0BB"/>
<stop offset="1" stop-color="#B5B0BB" stop-opacity="0"/>
</linearGradient>
<linearGradient id="paint31_linear_273_123" x1="6.24094" y1="17.4967" x2="7.2121" y2="17.4967" gradientUnits="userSpaceOnUse">
<stop stop-color="#B9A6CC"/>
<stop offset="1" stop-color="#B9A6CC" stop-opacity="0"/>
</linearGradient>
<linearGradient id="paint32_linear_273_123" x1="17.2991" y1="31.9543" x2="17.2991" y2="31.7259" gradientUnits="userSpaceOnUse">
<stop stop-color="#B9A6CC"/>
<stop offset="1" stop-color="#B9A6CC" stop-opacity="0"/>
</linearGradient>
<linearGradient id="paint33_linear_273_123" x1="27.3116" y1="31.7888" x2="27.1725" y2="31.5298" gradientUnits="userSpaceOnUse">
<stop stop-color="#B9A6CC"/>
<stop offset="1" stop-color="#B9A6CC" stop-opacity="0"/>
</linearGradient>
<linearGradient id="paint34_linear_273_123" x1="22.401" y1="7.88731" x2="20.7501" y2="7.88731" gradientUnits="userSpaceOnUse">
<stop offset="0.72" stop-color="#D2C5DE"/>
<stop offset="1" stop-color="#D2C5DF" stop-opacity="0"/>
</linearGradient>
<linearGradient id="paint35_linear_273_123" x1="24.7285" y1="13.9397" x2="24.7167" y2="11.7611" gradientUnits="userSpaceOnUse">
<stop offset="0.72" stop-color="#E9E1F3"/>
<stop offset="1" stop-color="#E9E1F3" stop-opacity="0"/>
</linearGradient>
<linearGradient id="paint36_linear_273_123" x1="21.6117" y1="11.088" x2="19.9805" y2="13.6441" gradientUnits="userSpaceOnUse">
<stop stop-color="#E9E1F3" stop-opacity="0"/>
<stop offset="0.682292" stop-color="#E9E1F3"/>
</linearGradient>
<linearGradient id="paint37_linear_273_123" x1="21.6646" y1="11.5161" x2="24.2043" y2="8.97634" gradientUnits="userSpaceOnUse">
<stop stop-color="#D9D3E1"/>
<stop offset="1" stop-color="#CCC7D1"/>
</linearGradient>
<linearGradient id="paint38_linear_273_123" x1="24.7754" y1="8.48042" x2="24.1592" y2="9.08154" gradientUnits="userSpaceOnUse">
<stop offset="0.119171" stop-color="#DBDADC"/>
<stop offset="0.577307" stop-color="#CBC7D0" stop-opacity="0"/>
</linearGradient>
<linearGradient id="paint39_linear_273_123" x1="21.1611" y1="7.70866" x2="21.3032" y2="7.70866" gradientUnits="userSpaceOnUse">
<stop stop-color="#A19CA7"/>
<stop offset="1" stop-color="#9D9CA7" stop-opacity="0"/>
</linearGradient>
<linearGradient id="paint40_linear_273_123" x1="24.3837" y1="11.8317" x2="24.3837" y2="11.6363" gradientUnits="userSpaceOnUse">
<stop stop-color="#C0ACD5"/>
<stop offset="1" stop-color="#C0ACD5" stop-opacity="0"/>
</linearGradient>
<radialGradient id="paint41_radial_273_123" cx="0" cy="0" r="1" gradientUnits="userSpaceOnUse" gradientTransform="translate(21.997 11.8923) rotate(-81.1582) scale(0.355694 2.05974)">
<stop stop-color="#C0ACD5"/>
<stop offset="1" stop-color="#C0ACD5" stop-opacity="0"/>
</radialGradient>
<radialGradient id="paint42_radial_273_123" cx="0" cy="0" r="1" gradientUnits="userSpaceOnUse" gradientTransform="translate(21.4581 11.6267) rotate(-40.8602) scale(0.328694 1.90339)">
<stop stop-color="#A19CA7"/>
<stop offset="1" stop-color="#A19CA7" stop-opacity="0"/>
</radialGradient>
<radialGradient id="paint43_radial_273_123" cx="0" cy="0" r="1" gradientUnits="userSpaceOnUse" gradientTransform="translate(21.1788 11.3212) rotate(-24.7752) scale(0.323915 1.87572)">
<stop stop-color="#A19CA7"/>
<stop offset="1" stop-color="#A19CA7" stop-opacity="0"/>
</radialGradient>
<radialGradient id="paint44_radial_273_123" cx="0" cy="0" r="1" gradientUnits="userSpaceOnUse" gradientTransform="translate(20.9901 10.9872) rotate(-6.45541) scale(0.406045 2.35132)">
<stop stop-color="#A19CA7"/>
<stop offset="1" stop-color="#A19CA7" stop-opacity="0"/>
</radialGradient>
<radialGradient id="paint45_radial_273_123" cx="0" cy="0" r="1" gradientUnits="userSpaceOnUse" gradientTransform="translate(21.5948 11.6881) rotate(-59.8587) scale(0.264958 1.53431)">
<stop stop-color="#A19CA7"/>
<stop offset="1" stop-color="#A19CA7" stop-opacity="0"/>
</radialGradient>
<linearGradient id="paint46_linear_273_123" x1="10.604" y1="23.8127" x2="19.2451" y2="23.8127" gradientUnits="userSpaceOnUse">
<stop stop-color="#9C96A2"/>
<stop offset="1" stop-color="#9A95A1"/>
</linearGradient>
<radialGradient id="paint47_radial_273_123" cx="0" cy="0" r="1" gradientUnits="userSpaceOnUse" gradientTransform="translate(26.3579 17.3292) rotate(-130.882) scale(0.806513 1.43278)">
<stop stop-color="#BAA8C1"/>
<stop offset="1" stop-color="#BAA8C1" stop-opacity="0"/>
</radialGradient>
<radialGradient id="paint48_radial_273_123" cx="0" cy="0" r="1" gradientUnits="userSpaceOnUse" gradientTransform="translate(25.7299 17.9299) rotate(-138.18) scale(0.696099 1.23663)">
<stop stop-color="#BAA8C1"/>
<stop offset="1" stop-color="#BAA8C1" stop-opacity="0"/>
</radialGradient>
<radialGradient id="paint49_radial_273_123" cx="0" cy="0" r="1" gradientUnits="userSpaceOnUse" gradientTransform="translate(26.0357 18.7817) rotate(43.3865) scale(1.30505 0.921399)">
<stop stop-color="#BAA8C1"/>
<stop offset="1" stop-color="#BAA8C1" stop-opacity="0"/>
</radialGradient>
<radialGradient id="paint50_radial_273_123" cx="0" cy="0" r="1" gradientUnits="userSpaceOnUse" gradientTransform="translate(27.3167 19.3102) scale(1.60907 0.636068)">
<stop offset="0.27157" stop-color="#BAA8C1"/>
<stop offset="1" stop-color="#BAA8C1" stop-opacity="0"/>
</radialGradient>
<linearGradient id="paint51_linear_273_123" x1="27.8411" y1="16.5674" x2="27.8411" y2="19.4194" gradientUnits="userSpaceOnUse">
<stop stop-color="#E0437B"/>
<stop offset="1" stop-color="#DC4369"/>
</linearGradient>
<linearGradient id="paint52_linear_273_123" x1="25.7181" y1="17.3408" x2="26.121" y2="17.6631" gradientUnits="userSpaceOnUse">
<stop offset="0.263415" stop-color="#CA4A72"/>
<stop offset="1" stop-color="#CA4A72" stop-opacity="0"/>
</linearGradient>
<linearGradient id="paint53_linear_273_123" x1="26.3369" y1="18.9249" x2="26.5385" y2="18.7232" gradientUnits="userSpaceOnUse">
<stop stop-color="#B83960"/>
<stop offset="1" stop-color="#B83960" stop-opacity="0"/>
</linearGradient>
<linearGradient id="paint54_linear_273_123" x1="28.8994" y1="19.2314" x2="28.8994" y2="19.0721" gradientUnits="userSpaceOnUse">
<stop stop-color="#B83960"/>
<stop offset="1" stop-color="#B83960" stop-opacity="0"/>
</linearGradient>
<linearGradient id="paint55_linear_273_123" x1="27.8411" y1="16.4778" x2="27.8411" y2="17.1318" gradientUnits="userSpaceOnUse">
<stop stop-color="#EC6693"/>
<stop offset="1" stop-color="#EC6693" stop-opacity="0"/>
</linearGradient>
<linearGradient id="paint56_linear_273_123" x1="30.3829" y1="17.1318" x2="29.7915" y2="17.1318" gradientUnits="userSpaceOnUse">
<stop stop-color="#EC6693"/>
<stop offset="1" stop-color="#EC6693" stop-opacity="0"/>
</linearGradient>
<radialGradient id="paint57_radial_273_123" cx="0" cy="0" r="1" gradientUnits="userSpaceOnUse" gradientTransform="translate(29.7139 24.3818) rotate(-134.931) scale(0.861314 1.54608)">
<stop stop-color="#91879F"/>
<stop offset="1" stop-color="#91879F" stop-opacity="0"/>
</radialGradient>
<radialGradient id="paint58_radial_273_123" cx="0" cy="0" r="1" gradientUnits="userSpaceOnUse" gradientTransform="translate(28.9902 24.9824) rotate(-142.174) scale(0.756855 1.3107)">
<stop stop-color="#91879F"/>
<stop offset="1" stop-color="#91879F" stop-opacity="0"/>
</radialGradient>
<radialGradient id="paint59_radial_273_123" cx="0" cy="0" r="1" gradientUnits="userSpaceOnUse" gradientTransform="translate(29.3427 25.8343) rotate(39.3589) scale(1.41358 0.980294)">
<stop stop-color="#91879F"/>
<stop offset="1" stop-color="#91879F" stop-opacity="0"/>
</radialGradient>
<radialGradient id="paint60_radial_273_123" cx="0" cy="0" r="1" gradientUnits="userSpaceOnUse" gradientTransform="translate(30.8188 26.3627) scale(1.85429 0.636068)">
<stop offset="0.27157" stop-color="#91879F"/>
<stop offset="1" stop-color="#91879F" stop-opacity="0"/>
</radialGradient>
<linearGradient id="paint61_linear_273_123" x1="30.9188" y1="23.7378" x2="30.9188" y2="26.5898" gradientUnits="userSpaceOnUse">
<stop stop-color="#E4BD58"/>
<stop offset="1" stop-color="#D89D52"/>
</linearGradient>
<linearGradient id="paint62_linear_273_123" x1="28.7958" y1="24.5112" x2="29.2953" y2="24.8818" gradientUnits="userSpaceOnUse">
<stop offset="0.263415" stop-color="#AB9365"/>
<stop offset="1" stop-color="#E3B758" stop-opacity="0"/>
</linearGradient>
<linearGradient id="paint63_linear_273_123" x1="29.3055" y1="25.9803" x2="29.5583" y2="25.7275" gradientUnits="userSpaceOnUse">
<stop stop-color="#A56947"/>
<stop offset="1" stop-color="#A56747" stop-opacity="0"/>
</linearGradient>
<linearGradient id="paint64_linear_273_123" x1="31.7053" y1="26.4222" x2="31.7053" y2="26.1348" gradientUnits="userSpaceOnUse">
<stop stop-color="#A56947"/>
<stop offset="1" stop-color="#A56747" stop-opacity="0"/>
</linearGradient>
<linearGradient id="paint65_linear_273_123" x1="31.7053" y1="23.9" x2="31.7053" y2="24.1798" gradientUnits="userSpaceOnUse">
<stop stop-color="#FCED70"/>
<stop offset="1" stop-color="#FCED70" stop-opacity="0"/>
</linearGradient>
<linearGradient id="paint66_linear_273_123" x1="33.4606" y1="24.1798" x2="32.9897" y2="24.1798" gradientUnits="userSpaceOnUse">
<stop stop-color="#FCED70"/>
<stop offset="1" stop-color="#FCED70" stop-opacity="0"/>
</linearGradient>
<radialGradient id="paint67_radial_273_123" cx="0" cy="0" r="1" gradientUnits="userSpaceOnUse" gradientTransform="translate(30.053 26.7197) rotate(-67.5431) scale(0.56631 1.00941)">
<stop stop-color="#A56947"/>
<stop offset="1" stop-color="#A56747" stop-opacity="0"/>
</radialGradient>
<radialGradient id="paint68_radial_273_123" cx="0" cy="0" r="1" gradientUnits="userSpaceOnUse" gradientTransform="translate(33.1104 27.0102) rotate(-45) scale(1.59073 0.878148)">
<stop stop-color="#A56947"/>
<stop offset="0.98754" stop-color="#A56747" stop-opacity="0"/>
</radialGradient>
</defs>
</svg>
