<svg width="166" height="167" viewBox="0 0 166 167" fill="none" xmlns="http://www.w3.org/2000/svg">
<g filter="url(#filter0_d_85_252)">
<path d="M133.782 93.7614H31.0122V120.75H133.782V93.7614Z" fill="white"/>
<path d="M44.4258 107.256C44.4258 114.709 38.4202 120.75 31.0122 120.75C23.6041 120.75 17.5986 114.709 17.5986 107.256C17.5986 99.8031 23.6041 93.7614 31.0122 93.7614C38.4202 93.7614 44.4258 99.8031 44.4258 107.256Z" fill="white"/>
<path d="M73.9573 92.093C73.9573 104.753 63.7551 115.016 51.1708 115.016C38.5864 115.016 28.385 104.753 28.385 92.093C28.385 79.4325 38.5864 69.1692 51.1708 69.1692C63.7551 69.1692 73.9573 79.4325 73.9573 92.093Z" fill="white"/>
<path d="M116.111 79.177C116.111 95.7724 102.738 109.226 86.2422 109.226C69.7462 109.226 56.3736 95.7724 56.3736 79.177C56.3736 62.5816 69.7462 49.1285 86.2422 49.1285C102.738 49.1285 116.111 62.5816 116.111 79.177Z" fill="white"/>
<path d="M137.282 89.2054C137.282 97.9324 130.249 105.007 121.574 105.007C112.9 105.007 105.867 97.9324 105.867 89.2054C105.867 80.4781 112.9 73.403 121.574 73.403C130.249 73.403 137.282 80.4781 137.282 89.2054Z" fill="white"/>
<path d="M148.401 107.256C148.401 114.709 142.396 120.75 134.988 120.75C127.58 120.75 121.574 114.709 121.574 107.256C121.574 99.8031 127.58 93.7614 134.988 93.7614C142.396 93.7614 148.401 99.8031 148.401 107.256Z" fill="white"/>
<path d="M77.8355 83.0837H88.1638C89.935 83.0837 91.371 84.5283 91.371 86.3102V105.174C91.371 106.956 89.935 108.4 88.1638 108.4H77.8355C76.0643 108.4 74.6283 106.956 74.6283 105.174V86.3102C74.6283 84.5283 76.0643 83.0837 77.8355 83.0837Z" fill="#079CF9"/>
<path d="M68.524 86.9436L80.7324 74.6613C81.9852 73.4013 84.0154 73.4013 85.2679 74.6613L97.4757 86.9436C99.4959 88.9757 98.0655 92.451 95.2085 92.451H70.7919C67.9348 92.451 66.5037 88.9757 68.524 86.9436Z" fill="#079CF9"/>
</g>
<defs>
<filter id="filter0_d_85_252" x="13.5986" y="45.1285" width="138.803" height="79.6217" filterUnits="userSpaceOnUse" color-interpolation-filters="sRGB">
<feFlood flood-opacity="0" result="BackgroundImageFix"/>
<feColorMatrix in="SourceAlpha" type="matrix" values="0 0 0 0 0 0 0 0 0 0 0 0 0 0 0 0 0 0 127 0" result="hardAlpha"/>
<feOffset/>
<feGaussianBlur stdDeviation="2"/>
<feComposite in2="hardAlpha" operator="out"/>
<feColorMatrix type="matrix" values="0 0 0 0 0 0 0 0 0 0 0 0 0 0 0 0 0 0 0.25 0"/>
<feBlend mode="normal" in2="BackgroundImageFix" result="effect1_dropShadow_85_252"/>
<feBlend mode="normal" in="SourceGraphic" in2="effect1_dropShadow_85_252" result="shape"/>
</filter>
</defs>
</svg>
